<svg width="250" height="50" viewBox="0 0 250 50" fill="none" xmlns="http://www.w3.org/2000/svg">
  <!-- Biểu tượng trừu tượng từ logo gốc -->
  <circle cx="20" cy="40" r="5" fill="#FF3D3D"/>
  <path d="M6.87866 35.9321C7.76872 36.6879 8.73173 37.3646 9.76768 37.9622C12.8016 39.6541 16.15 40.5001 19.8128 40.5001C23.4757 40.5001 26.8056 39.6541 29.8025 37.9622C32.8363 36.2334 35.2228 33.8426 36.9617 30.7897C38.7376 27.7369 39.6256 24.2978 39.6256 20.4725C39.6256 16.6472 38.7561 13.2265 37.0172 10.2104C36.4818 9.27044 35.885 8.39496 35.2268 7.58398L28.5692 14.2416C29.5024 15.966 29.969 18.043 29.969 20.4725C29.969 23.8932 29.044 26.615 27.194 28.638C25.3441 30.661 22.8837 31.6725 19.8128 31.6725C17.1931 31.6725 15.0203 30.9538 13.2943 29.5164L6.87866 35.9321Z" fill="#333E48"/>
  <path d="M25.7146 10.9805C24.1118 9.84178 22.1445 9.27242 19.8128 9.27242C16.7049 9.27242 14.226 10.2839 12.3761 12.3069C10.5631 14.2931 9.65665 17.0149 9.65665 20.4724C9.65665 22.5821 10.0015 24.426 10.6911 26.004L3.91928 32.7758C3.45055 32.1482 3.01359 31.4862 2.60841 30.7897C0.869469 27.7368 0 24.2977 0 20.4724C0 16.6471 0.869469 13.2264 2.60841 10.2103C4.38434 7.15747 6.77076 4.78506 9.76765 3.09311C12.8015 1.36437 16.1499 0.5 19.8128 0.5C23.5127 0.5 26.861 1.36437 29.8579 3.09311C30.6577 3.5391 31.4124 4.03238 32.1222 4.57295L25.7146 10.9805Z" fill="#FF3D3D"/>

  <!-- Chữ "Phone Store" -->
  <text x="50" y="35" font-family="Arial, sans-serif" font-size="34" font-weight="bold" fill="#333E48">Phone Store</text>
</svg>